<?xml version="1.0" encoding="UTF-8" standalone="no"?>
<!-- Created with Inkscape (http://www.inkscape.org/) -->

<svg
   xmlns:dc="http://purl.org/dc/elements/1.1/"
   xmlns:cc="http://creativecommons.org/ns#"
   xmlns:rdf="http://www.w3.org/1999/02/22-rdf-syntax-ns#"
   xmlns:svg="http://www.w3.org/2000/svg"
   xmlns="http://www.w3.org/2000/svg"
   xmlns:sodipodi="http://sodipodi.sourceforge.net/DTD/sodipodi-0.dtd"
   xmlns:inkscape="http://www.inkscape.org/namespaces/inkscape"
   width="210mm"
   height="297mm"
   viewBox="0 0 210 297"
   version="1.1"
   id="svg8"
   inkscape:version="0.92.5 (0.92.5+68)"
   sodipodi:docname="logog.svg">
  <defs
     id="defs2" />
  <sodipodi:namedview
     id="base"
     pagecolor="#ffffff"
     bordercolor="#666666"
     borderopacity="1.0"
     inkscape:pageopacity="0.0"
     inkscape:pageshadow="2"
     inkscape:zoom="0.68981673"
     inkscape:cx="256.56684"
     inkscape:cy="537.0611"
     inkscape:document-units="mm"
     inkscape:current-layer="layer2"
     showgrid="false"
     inkscape:window-width="1366"
     inkscape:window-height="719"
     inkscape:window-x="0"
     inkscape:window-y="0"
     inkscape:window-maximized="1" />
  <metadata
     id="metadata5">
    <rdf:RDF>
      <cc:Work
         rdf:about="">
        <dc:format>image/svg+xml</dc:format>
        <dc:type
           rdf:resource="http://purl.org/dc/dcmitype/StillImage" />
        <dc:title></dc:title>
      </cc:Work>
    </rdf:RDF>
  </metadata>
  <g
     inkscape:groupmode="layer"
     id="layer3"
     inkscape:label="Layer 3">
    <circle
       style="opacity:1;fill:#cd2e3a;fill-opacity:1;stroke:#0047a0;stroke-width:5.03967857;stroke-linecap:round;stroke-linejoin:round;stroke-miterlimit:4;stroke-dasharray:none;stroke-opacity:1;paint-order:normal"
       id="path829"
       cx="96.272552"
       cy="158.91986"
       r="70.554459" />
  </g>
  <g
     inkscape:groupmode="layer"
     id="layer2"
     inkscape:label="Layer 2">
    <path
       style="fill:#0047a0;stroke:#cd2e3a;stroke-width:0.26458332px;stroke-linecap:butt;stroke-linejoin:miter;stroke-opacity:1;fill-opacity:1"
       d="m 92.051422,102.83492 c 0,0 3.878386,41.01545 60.292208,50.1068 5.167,0.83269 -9.08717,6.1472 -9.08717,6.1472 0,0 -57.590067,-24.24107 -61.366841,-60.803137 -0.82927,-8.027961 10.161803,4.549137 10.161803,4.549137 z"
       id="path815"
       inkscape:connector-curvature="0"
       sodipodi:nodetypes="cscsc" />
    <path
       style="fill:#0047a0;stroke:none;stroke-width:0.45462331px;stroke-linecap:butt;stroke-linejoin:miter;stroke-opacity:1;fill-opacity:1"
       d="m 71.278729,157.265 c -3.905298,-2.12199 -5.47631,-4.07334 -5.276372,4.14684 0.233343,9.59365 0.312794,30.65698 -5.446576,47.84797 -1.126199,3.36158 3.183487,2.04758 5.957194,-0.63796 2.042465,-3.50885 9.570769,-43.60709 4.765754,-51.35685 z"
       id="path821"
       inkscape:connector-curvature="0"
       sodipodi:nodetypes="csscc" />
    <path
       sodipodi:nodetypes="csscc"
       inkscape:connector-curvature="0"
       id="path825"
       d="m 138.01747,157.265 c -3.9053,-2.12199 -5.47631,-4.07334 -5.27637,4.14684 0.23334,9.59365 0.31279,30.65698 -5.44658,47.84797 -1.1262,3.36158 3.18349,2.04758 5.9572,-0.63796 2.04246,-3.50885 9.57077,-43.60709 4.76575,-51.35685 z"
       style="fill:#cd2e3a;stroke:#0047a0;stroke-width:1.32291667;stroke-linecap:butt;stroke-linejoin:miter;stroke-opacity:1;fill-opacity:1;stroke-miterlimit:4;stroke-dasharray:none" />
    <path
       style="fill:#cd2e3a;stroke:#0047a0;stroke-width:1.32291667;stroke-linecap:butt;stroke-linejoin:miter;stroke-opacity:1;fill-opacity:1;stroke-miterlimit:4;stroke-dasharray:none"
       d="m 60.967212,218.37692 c 0,0 0.813646,-3.78298 2.847758,-4.8147 2.034114,-1.03173 25.105751,2.29127 27.79954,-0.45855 1.796801,-1.83417 1.638925,-1.36017 2.79159,-3.73887 0,0 2.897352,-1.14352 5.66261,0.2849 0.93837,0.48473 -0.644472,3.48575 0.6315,4.14178 0.94926,0.57318 26.17225,-2.29271 27.52833,-0.3439 1.35607,1.94881 3.25458,5.15861 -2.57655,5.50251 -5.82991,0.34398 -62.031713,2.12418 -64.684778,-0.57317 z"
       id="path827"
       inkscape:connector-curvature="0"
       sodipodi:nodetypes="csssscccc" />
  </g>
  <g
     inkscape:label="Layer 1"
     inkscape:groupmode="layer"
     id="layer1">
    <path
       style="fill:#cd2e3a;stroke:#0047a0;stroke-width:1.32291667;stroke-linecap:butt;stroke-linejoin:miter;stroke-opacity:1;fill-opacity:1;stroke-miterlimit:4;stroke-dasharray:none"
       d="m 47.486917,158.64278 c 0,0 1.614213,0.98835 5.553044,-0.24254 3.938831,-1.23087 44.181344,-14.7444 61.346759,-51.0921 1.51965,-3.21786 -3.16439,-14.050581 -4.08954,-11.40856 -11.997348,34.26166 -31.468671,41.47379 -62.810263,62.7432 z"
       id="path817"
       inkscape:connector-curvature="0"
       sodipodi:nodetypes="csssc" />
  </g>
</svg>
